<?xml version="1.0" encoding="UTF-8"?>
<svg id="Layer_1" data-name="Layer 1" xmlns="http://www.w3.org/2000/svg" viewBox="0 0 105.09 105.09">
  <defs>
    <style>
      .cls-1 {
        fill: #33c759;
      }
    </style>
  </defs>
  <path class="cls-1" d="M91.83,42.57c.12,5.97-2.13,10.29-6.76,12.97-3.65,2.07-8.71,3.05-15.17,2.92h-13.52c-2.44,0-3.65.49-3.65,1.46s1.22,1.46,3.67,1.46h31.76c2.45,0,3.67,1.22,3.67,3.65v29.05c0,2.44-1.22,3.66-3.66,3.66h-29.12c-12.94,0-23.81-4.49-32.6-13.48-8.79-8.99-13.18-19.96-13.18-32.92,0-2.44,1.22-3.67,3.65-3.67h48.24c2.44,0,3.66-.85,3.66-2.56s-1.22-2.56-3.66-2.56H16.91c-2.44,0-3.65-1.22-3.65-3.66V9.86c0-2.44,1.22-3.66,3.66-3.66h52.93c6.1,0,11.26,2.13,15.48,6.4,4.21,4.26,6.38,9.44,6.5,15.53v14.44Z"/>
</svg>