<?xml version="1.0" encoding="UTF-8"?>
<svg id="Layer_1" data-name="Layer 1" xmlns="http://www.w3.org/2000/svg" viewBox="0 0 353.95 105.09">
  <defs>
    <style>
      .cls-1 {
        fill: #33c759;
      }

      .cls-2 {
        fill: #f2f2f2;
      }
    </style>
  </defs>
  <path class="cls-1" d="M74.74,80.72c-2.83-2.83-4.24-6.28-4.24-10.33v-6.34h-23.3c-2.46,0-3.69-.48-3.69-1.47s1.23-1.47,3.68-1.47h13.59c3.7.08,6.95-.22,9.73-.88V26.62c0-1.62.8-2.43,2.43-2.43h7.28c.56,0,1.12.02,1.65.08-1.03-3.46-2.89-6.55-5.58-9.27-4.24-4.29-9.42-6.43-15.56-6.43H7.52c-2.46,0-3.69,1.23-3.69,3.67v29.21c0,2.45,1.23,3.67,3.68,3.67h48.48c2.45,0,3.68.86,3.68,2.58s-1.23,2.57-3.68,2.57H7.51c-2.45,0-3.68,1.23-3.68,3.69,0,13.03,4.42,24.06,13.26,33.09,8.83,9.03,19.75,13.55,32.77,13.55h29.27c2.45,0,3.68-1.23,3.68-3.68v-12.1c-3.08-.43-5.78-1.8-8.06-4.1Z"/>
  <path class="cls-2" d="M152.05,24.2h-7.21c-4,0-7.4,1.42-10.21,4.26-2.8,2.83-4.2,6.29-4.2,10.35v19.59c0,1.63-.83,2.43-2.48,2.43h-.87c-1.65,0-2.48-.81-2.48-2.43v-31.77c0-1.62-.81-2.43-2.43-2.43h-19.41c-1.62,0-2.43.81-2.43,2.43v31.77c0,1.63-.81,2.43-2.43,2.43h-.73c-1.62,0-2.43-.81-2.43-2.43v-19.59c0-4.06-1.42-7.51-4.25-10.35-2.43-2.44-5.32-3.84-8.65-4.18.59,1.99.91,4.1.95,6.34v14.51c.13,6-2.14,10.35-6.8,13.04-1.58.89-3.41,1.58-5.51,2.07v3.81h8.62c2.46,0,3.69,1.23,3.69,3.68v17.1c.73.11,1.48.16,2.25.16h54.84c4.04,0,7.48-1.42,10.31-4.26,2.83-2.83,4.25-6.28,4.25-10.33V26.62c0-1.62-.81-2.43-2.4-2.43Z"/>
  <path class="cls-2" d="M184.29,63.74h8.98c4.29.08,7.64-.56,10.06-1.94,2.99-1.78,4.49-4.64,4.49-8.61v-14.43c0-4.13-1.4-7.59-4.19-10.37-2.8-2.79-6.27-4.19-10.4-4.19h-22.99c-4.05,0-7.5,1.42-10.34,4.25-2.83,2.83-4.25,6.28-4.25,10.33v15.44c0,8.59,2.92,15.87,8.75,21.82,5.84,5.96,13.05,8.94,21.64,8.94h19.33c1.63,0,2.43-.81,2.43-2.43v-14.44c0-1.62-.82-2.43-2.44-2.43h-21.09c-1.63,0-2.43-.33-2.43-.97s.81-.98,2.43-.98ZM179.68,54.5v-5.04c0-1.64.82-2.46,2.45-2.46h7.6c1.63,0,2.45.82,2.45,2.46v5.04c0,1.63-.82,2.45-2.45,2.45h-7.6c-1.63,0-2.45-.82-2.45-2.45Z"/>
  <path class="cls-2" d="M252.96,28.44c-2.83-2.83-6.27-4.24-10.31-4.24h-19.17c-4.04,0-7.49,1.42-10.31,4.25-2.83,2.83-4.24,6.28-4.24,10.34v43.76c0,1.62.8,2.43,2.41,2.43h19.19c1.61,0,2.42-.81,2.42-2.43v-31.78c0-1.62.81-2.43,2.43-2.43h19.38c1.63,0,2.44-.8,2.44-2.43v-7.15c0-4.04-1.42-7.48-4.24-10.31Z"/>
  <path class="cls-2" d="M294.32,45.07c1.62,0,2.43-.81,2.43-2.43v-16.02c0-1.62-.79-2.43-2.38-2.43h-11.45v-5.59c0-4.04-1.43-7.48-4.29-10.31-2.86-2.83-6.34-4.25-10.41-4.25h-7.35c-1.63,0-2.45.82-2.45,2.43v63.91c0,3.97,1.43,7.4,4.31,10.26,2.87,2.88,6.29,4.32,10.25,4.32h21.35c1.62,0,2.43-.81,2.43-2.43v-15.29c0-1.62-.81-2.43-2.43-2.43h-8.98c-1.62,0-2.43-.81-2.43-2.44v-17.33h11.41Z"/>
  <path class="cls-2" d="M326.58,63.74h8.98c4.29.08,7.65-.56,10.07-1.94,2.99-1.78,4.49-4.64,4.49-8.61v-14.43c0-4.13-1.4-7.59-4.19-10.37-2.79-2.79-6.26-4.19-10.4-4.19h-22.98c-4.06,0-7.5,1.42-10.34,4.25-2.83,2.83-4.25,6.28-4.25,10.33v15.44c0,8.59,2.91,15.87,8.75,21.82,5.84,5.96,13.06,8.94,21.65,8.94h19.33c1.62,0,2.43-.81,2.43-2.43v-14.44c0-1.62-.81-2.43-2.43-2.43h-21.09c-1.63,0-2.44-.33-2.44-.97s.81-.98,2.43-.98ZM321.98,54.5v-5.04c0-1.64.82-2.46,2.45-2.46h7.59c1.63,0,2.45.82,2.45,2.46v5.04c0,1.63-.82,2.45-2.45,2.45h-7.59c-1.63,0-2.45-.82-2.45-2.45Z"/>
</svg>